#N canvas 581 40 742 519 10;
#X obj -104 153 pack f f f;
#X obj -103 33 notein;
#X obj -36 450 dac~;
#N canvas 428 95 281 344 voice 0;
#X obj 31 21 inlet;
#X obj 31 56 unpack f f;
#X obj 31 110 mtof;
#X obj 31 185 osc~;
#X obj 31 248 *~;
#X msg 99 157 0 100;
#X obj 131 208 vline~;
#X obj 31 293 outlet~;
#X msg 160 158 0 \, 1 100;
#X obj 31 155 vline~;
#X obj 99 112 select 0;
#X connect 0 0 1 0;
#X connect 1 0 2 0;
#X connect 1 1 10 0;
#X connect 2 0 9 0;
#X connect 3 0 4 0;
#X connect 4 0 7 0;
#X connect 5 0 6 0;
#X connect 6 0 4 1;
#X connect 8 0 6 0;
#X connect 9 0 3 0;
#X connect 10 0 5 0;
#X connect 10 1 8 0;
#X restore -218 295 pd voice;
#X obj -103 96 poly 10 1;
#X text -9 221 comment;
#X obj -104 222 route 1 2 3 4 5 6 7 8 9 10;
#X obj -36 401 *~ 0.1;
#N canvas 428 95 281 344 voice 0;
#X obj 31 21 inlet;
#X obj 31 56 unpack f f;
#X obj 31 110 mtof;
#X obj 31 185 osc~;
#X obj 31 248 *~;
#X msg 99 157 0 100;
#X obj 131 208 vline~;
#X obj 31 293 outlet~;
#X msg 160 158 0 \, 1 100;
#X obj 31 155 vline~;
#X obj 99 112 select 0;
#X connect 0 0 1 0;
#X connect 1 0 2 0;
#X connect 1 1 10 0;
#X connect 2 0 9 0;
#X connect 3 0 4 0;
#X connect 4 0 7 0;
#X connect 5 0 6 0;
#X connect 6 0 4 1;
#X connect 8 0 6 0;
#X connect 9 0 3 0;
#X connect 10 0 5 0;
#X connect 10 1 8 0;
#X restore -82 295 pd voice;
#N canvas 428 95 281 344 voice 0;
#X obj 31 21 inlet;
#X obj 31 56 unpack f f;
#X obj 31 110 mtof;
#X obj 31 185 osc~;
#X obj 31 248 *~;
#X msg 99 157 0 100;
#X obj 131 208 vline~;
#X obj 31 293 outlet~;
#X msg 160 158 0 \, 1 100;
#X obj 31 155 vline~;
#X obj 99 112 select 0;
#X connect 0 0 1 0;
#X connect 1 0 2 0;
#X connect 1 1 10 0;
#X connect 2 0 9 0;
#X connect 3 0 4 0;
#X connect 4 0 7 0;
#X connect 5 0 6 0;
#X connect 6 0 4 1;
#X connect 8 0 6 0;
#X connect 9 0 3 0;
#X connect 10 0 5 0;
#X connect 10 1 8 0;
#X restore -149 295 pd voice;
#N canvas 428 95 281 344 voice 0;
#X obj 31 21 inlet;
#X obj 31 56 unpack f f;
#X obj 31 110 mtof;
#X obj 31 185 osc~;
#X obj 31 248 *~;
#X msg 99 157 0 100;
#X obj 131 208 vline~;
#X obj 31 293 outlet~;
#X msg 160 158 0 \, 1 100;
#X obj 31 155 vline~;
#X obj 99 112 select 0;
#X connect 0 0 1 0;
#X connect 1 0 2 0;
#X connect 1 1 10 0;
#X connect 2 0 9 0;
#X connect 3 0 4 0;
#X connect 4 0 7 0;
#X connect 5 0 6 0;
#X connect 6 0 4 1;
#X connect 8 0 6 0;
#X connect 9 0 3 0;
#X connect 10 0 5 0;
#X connect 10 1 8 0;
#X restore -17 295 pd voice;
#N canvas 428 95 281 344 voice 0;
#X obj 31 21 inlet;
#X obj 31 56 unpack f f;
#X obj 31 110 mtof;
#X obj 31 185 osc~;
#X obj 31 248 *~;
#X msg 99 157 0 100;
#X obj 131 208 vline~;
#X obj 31 293 outlet~;
#X msg 160 158 0 \, 1 100;
#X obj 31 155 vline~;
#X obj 99 112 select 0;
#X connect 0 0 1 0;
#X connect 1 0 2 0;
#X connect 1 1 10 0;
#X connect 2 0 9 0;
#X connect 3 0 4 0;
#X connect 4 0 7 0;
#X connect 5 0 6 0;
#X connect 6 0 4 1;
#X connect 8 0 6 0;
#X connect 9 0 3 0;
#X connect 10 0 5 0;
#X connect 10 1 8 0;
#X restore 119 295 pd voice;
#N canvas 428 95 281 315 voice 0;
#X obj 31 21 inlet;
#X obj 31 56 unpack f f;
#X obj 31 110 mtof;
#X obj 31 185 osc~;
#X obj 31 248 *~;
#X msg 99 157 0 100;
#X obj 131 208 vline~;
#X obj 31 293 outlet~;
#X msg 160 158 0 \, 1 100;
#X obj 31 155 vline~;
#X obj 99 112 select 0;
#X connect 0 0 1 0;
#X connect 1 0 2 0;
#X connect 1 1 10 0;
#X connect 2 0 9 0;
#X connect 3 0 4 0;
#X connect 4 0 7 0;
#X connect 5 0 6 0;
#X connect 6 0 4 1;
#X connect 8 0 6 0;
#X connect 9 0 3 0;
#X connect 10 0 5 0;
#X connect 10 1 8 0;
#X restore 52 295 pd voice;
#N canvas 428 95 281 315 voice 0;
#X obj 31 21 inlet;
#X obj 31 56 unpack f f;
#X obj 31 110 mtof;
#X obj 31 185 osc~;
#X obj 31 248 *~;
#X msg 99 157 0 100;
#X obj 131 208 vline~;
#X obj 31 293 outlet~;
#X msg 160 158 0 \, 1 100;
#X obj 31 155 vline~;
#X obj 99 112 select 0;
#X connect 0 0 1 0;
#X connect 1 0 2 0;
#X connect 1 1 10 0;
#X connect 2 0 9 0;
#X connect 3 0 4 0;
#X connect 4 0 7 0;
#X connect 5 0 6 0;
#X connect 6 0 4 1;
#X connect 8 0 6 0;
#X connect 9 0 3 0;
#X connect 10 0 5 0;
#X connect 10 1 8 0;
#X restore 181 294 pd voice;
#N canvas 428 95 281 315 voice 0;
#X obj 31 21 inlet;
#X obj 31 56 unpack f f;
#X obj 31 110 mtof;
#X obj 31 185 osc~;
#X obj 31 248 *~;
#X msg 99 157 0 100;
#X obj 131 208 vline~;
#X obj 31 293 outlet~;
#X msg 160 158 0 \, 1 100;
#X obj 31 155 vline~;
#X obj 99 112 select 0;
#X connect 0 0 1 0;
#X connect 1 0 2 0;
#X connect 1 1 10 0;
#X connect 2 0 9 0;
#X connect 3 0 4 0;
#X connect 4 0 7 0;
#X connect 5 0 6 0;
#X connect 6 0 4 1;
#X connect 8 0 6 0;
#X connect 9 0 3 0;
#X connect 10 0 5 0;
#X connect 10 1 8 0;
#X restore -283 295 pd voice;
#N canvas 428 95 281 315 voice 0;
#X obj 31 21 inlet;
#X obj 31 56 unpack f f;
#X obj 31 110 mtof;
#X obj 31 185 osc~;
#X obj 31 248 *~;
#X msg 99 157 0 100;
#X obj 131 208 vline~;
#X obj 31 293 outlet~;
#X msg 160 158 0 \, 1 100;
#X obj 31 155 vline~;
#X obj 99 112 select 0;
#X connect 0 0 1 0;
#X connect 1 0 2 0;
#X connect 1 1 10 0;
#X connect 2 0 9 0;
#X connect 3 0 4 0;
#X connect 4 0 7 0;
#X connect 5 0 6 0;
#X connect 6 0 4 1;
#X connect 8 0 6 0;
#X connect 9 0 3 0;
#X connect 10 0 5 0;
#X connect 10 1 8 0;
#X restore -350 295 pd voice;
#N canvas 428 95 281 315 voice 0;
#X obj 31 21 inlet;
#X obj 31 56 unpack f f;
#X obj 31 110 mtof;
#X obj 31 185 osc~;
#X obj 31 248 *~;
#X msg 99 157 0 100;
#X obj 131 208 vline~;
#X obj 31 293 outlet~;
#X msg 160 158 0 \, 1 100;
#X obj 31 155 vline~;
#X obj 99 112 select 0;
#X connect 0 0 1 0;
#X connect 1 0 2 0;
#X connect 1 1 10 0;
#X connect 2 0 9 0;
#X connect 3 0 4 0;
#X connect 4 0 7 0;
#X connect 5 0 6 0;
#X connect 6 0 4 1;
#X connect 8 0 6 0;
#X connect 9 0 3 0;
#X connect 10 0 5 0;
#X connect 10 1 8 0;
#X restore 243 294 pd voice;
#X connect 0 0 6 0;
#X connect 1 0 4 0;
#X connect 1 1 4 1;
#X connect 3 0 7 0;
#X connect 4 0 0 0;
#X connect 4 1 0 1;
#X connect 4 2 0 2;
#X connect 6 0 15 0;
#X connect 6 1 14 0;
#X connect 6 2 3 0;
#X connect 6 3 9 0;
#X connect 6 4 8 0;
#X connect 6 5 10 0;
#X connect 6 6 12 0;
#X connect 6 7 11 0;
#X connect 6 8 13 0;
#X connect 6 9 16 0;
#X connect 7 0 2 0;
#X connect 7 0 2 1;
#X connect 8 0 7 0;
#X connect 9 0 7 0;
#X connect 10 0 7 0;
#X connect 11 0 7 0;
#X connect 12 0 7 0;
#X connect 13 0 7 0;
#X connect 14 0 7 0;
#X connect 15 0 7 0;
#X connect 16 0 7 0;
