#N canvas 824 159 1033 575 16;
#X obj 108 321 osc~;
#X msg 325 286 0 100;
#X obj 254 371 line~;
#X obj 219 410 *~;
#X obj 217 465 dac~;
#X obj 407 237 bng 15 250 50 0 empty empty empty 17 7 0 10 -262144
-1 -1;
#X obj 234 29 receive #note;
#X obj 589 107 route on off;
#X obj 528 131 bng 15 250 50 0 empty empty empty 17 7 0 10 -262144
-1 -1;
#X msg 229 286 1 100;
#X connect 0 0 3 0;
#X connect 1 0 2 0;
#X connect 2 0 3 1;
#X connect 3 0 4 0;
#X connect 3 0 4 1;
#X connect 5 0 1 0;
#X connect 6 0 7 0;
#X connect 7 0 8 0;
#X connect 7 0 0 0;
#X connect 7 1 5 0;
#X connect 8 0 9 0;
#X connect 9 0 2 0;
